<?xml version="1.0" standalone="no"?>
<!DOCTYPE svg PUBLIC "-//W3C//DTD SVG 20010904//EN"
 "http://www.w3.org/TR/2001/REC-SVG-20010904/DTD/svg10.dtd">
<svg version="1.0" xmlns="http://www.w3.org/2000/svg"
 width="225.000000pt" height="225.000000pt" viewBox="0 0 225.000000 225.000000"
 preserveAspectRatio="xMidYMid meet">

<g transform="translate(0.000000,225.000000) scale(0.100000,-0.100000)"
fill="#000000" stroke="none">
<path d="M0 1125 l0 -1125 1125 0 1125 0 0 1125 0 1125 -1125 0 -1125 0 0
-1125z m1991 473 c26 -49 -8 -170 -75 -263 -43 -59 -44 -71 -10 -79 34 -9 90
10 109 37 8 11 18 17 22 13 5 -4 -7 -21 -25 -37 -24 -22 -42 -29 -72 -29 -22
0 -40 -2 -40 -4 0 -2 9 -25 21 -51 27 -60 29 -153 5 -189 -12 -18 -25 -26 -46
-26 -49 0 -56 29 -36 154 22 145 22 148 -10 136 -14 -6 -38 -10 -52 -10 -15 0
-44 -3 -65 -6 -54 -9 -77 14 -77 78 0 108 92 186 150 128 25 -25 27 -101 5
-144 -19 -36 -19 -36 8 -36 46 0 65 25 72 98 10 97 33 203 51 229 18 29 50 30
65 1z m-663 -86 l3 -83 30 25 c41 35 100 36 134 1 23 -22 25 -31 25 -125 0
-93 1 -100 20 -100 11 0 20 -4 20 -10 0 -6 -27 -10 -60 -10 -33 0 -60 4 -60
10 0 6 11 10 25 10 25 0 25 0 25 100 0 94 -1 100 -24 115 -33 22 -69 11 -106
-31 -28 -32 -30 -41 -30 -109 0 -68 2 -75 20 -75 11 0 20 -4 20 -10 0 -6 -27
-10 -60 -10 -33 0 -60 4 -60 10 0 6 11 10 25 10 l25 0 0 169 c0 163 -1 169
-21 174 -30 8 -13 29 19 25 27 -3 27 -4 30 -86z m-718 44 c0 -21 -21 -31 -30
-15 -5 7 -6 17 -4 21 9 14 34 9 34 -6z m-298 -87 c2 -7 12 -7 31 0 46 18 83
13 116 -15 89 -74 43 -244 -66 -244 -21 0 -49 7 -61 16 l-23 16 3 -64 c3 -57
5 -63 26 -66 46 -7 20 -22 -38 -22 -33 0 -60 4 -60 10 0 6 9 10 20 10 19 0 20
7 20 175 0 149 -2 175 -15 175 -8 0 -15 5 -15 10 0 13 57 13 62 -1z m298 -114
c0 -118 1 -125 20 -125 11 0 20 -4 20 -10 0 -5 -25 -10 -55 -10 -30 0 -55 5
-55 10 0 6 9 10 20 10 19 0 20 7 20 115 0 96 -3 115 -15 115 -8 0 -15 5 -15
10 0 6 14 10 30 10 l30 0 0 -125z m150 93 c1 -27 2 -30 11 -15 28 48 116 61
154 22 23 -22 25 -31 25 -125 l0 -100 25 0 c14 0 25 -4 25 -10 0 -6 -27 -10
-60 -10 -33 0 -60 4 -60 10 0 6 9 10 20 10 20 0 21 5 18 107 l-3 107 -29 7
c-39 11 -74 -7 -103 -50 -18 -27 -23 -48 -23 -102 0 -67 1 -69 25 -69 14 0 25
-4 25 -10 0 -6 -27 -10 -60 -10 -33 0 -60 4 -60 10 0 6 9 10 20 10 19 0 20 7
20 115 0 96 -3 115 -15 115 -8 0 -15 5 -15 10 0 6 14 10 30 10 27 0 30 -3 30
-32z m429 19 c34 -17 49 -43 33 -59 -10 -10 -14 -8 -18 9 -7 27 -61 47 -98 37
-42 -10 -76 -59 -76 -109 0 -85 81 -137 156 -101 38 18 54 20 54 8 0 -17 -60
-42 -102 -42 -105 0 -167 100 -121 197 30 63 111 92 172 60z m426 -410 c11
-15 15 -49 15 -119 0 -92 1 -97 22 -100 12 -2 23 -9 26 -16 3 -10 -9 -12 -52
-10 -56 3 -81 20 -38 26 21 3 22 8 22 90 0 96 -14 132 -53 132 -59 0 -97 -61
-97 -153 0 -56 3 -65 20 -70 41 -11 20 -27 -35 -27 -55 0 -73 13 -35 25 18 6
20 15 20 106 0 97 -1 100 -25 111 -63 29 -113 -28 -122 -141 -6 -69 -6 -70 21
-77 46 -11 28 -24 -34 -24 -61 0 -80 13 -35 24 25 6 25 7 25 116 0 91 -3 110
-15 110 -8 0 -15 5 -15 10 0 6 11 10 25 10 20 0 25 -5 25 -26 l0 -26 31 26
c49 42 123 33 142 -16 3 -9 10 -6 21 9 32 43 114 48 141 10z m-968 11 c5 -7
27 -57 49 -110 21 -54 41 -98 44 -98 3 0 24 45 46 100 l42 100 -29 0 c-16 0
-29 5 -29 10 0 6 25 10 55 10 30 0 55 -4 55 -10 0 -5 -6 -10 -13 -10 -7 0 -41
-67 -76 -150 -35 -83 -74 -164 -87 -179 -27 -32 -66 -43 -103 -29 -31 11 -41
25 -41 56 0 17 5 23 18 20 11 -2 16 -11 14 -25 -3 -25 26 -38 63 -29 25 6 65
62 65 90 0 20 -78 216 -92 231 -5 6 -14 10 -20 10 -6 0 -13 6 -15 13 -3 7 5
12 20 12 13 0 29 -6 34 -12z m313 -96 c0 -120 5 -132 58 -132 48 0 71 16 93
63 24 53 27 157 4 157 -8 0 -15 5 -15 10 0 6 11 10 25 10 l25 0 0 -107 c0
-113 3 -125 33 -136 22 -8 13 -27 -12 -27 -22 0 -41 19 -41 43 0 16 -5 15 -35
-12 -38 -33 -76 -39 -119 -20 -34 16 -46 56 -46 155 0 68 -3 84 -15 84 -8 0
-15 5 -15 10 0 6 14 10 30 10 l30 0 0 -108z"/>
<path d="M1936 1581 c-14 -26 -46 -192 -46 -231 1 -26 49 42 71 99 22 59 23
151 2 158 -6 3 -19 -9 -27 -26z"/>
<path d="M1700 1430 c-29 -29 -26 -81 6 -119 14 -17 32 -31 40 -31 19 0 41 37
49 83 14 72 -47 115 -95 67z"/>
<path d="M1650 1320 c0 -31 30 -70 53 -70 26 0 24 11 -4 40 -16 16 -29 36 -29
44 0 9 -4 16 -10 16 -5 0 -10 -13 -10 -30z"/>
<path d="M1860 1114 c-11 -91 -11 -107 2 -120 35 -36 75 33 65 111 -6 44 -35
115 -47 115 -4 0 -13 -48 -20 -106z"/>
<path d="M348 1443 l-38 -15 0 -75 c0 -65 3 -77 25 -98 41 -42 102 -30 130 25
33 64 10 149 -46 169 -18 6 -32 11 -33 10 -1 0 -18 -7 -38 -16z"/>
</g>
</svg>
